M48
INCH
T1C0.0118
T2C0.0157
T3C0.0354
T4C0.0394
%
G90
G05
T1
X5.6024Y-3.3465
X5.637Y-3.651
X5.644Y-3.048
X5.6736Y-3.014
X5.6736Y-3.679
X5.703Y-3.048
X5.71Y-3.651
X5.937Y-3.042
X5.937Y-3.651
X5.9736Y-3.014
X5.9736Y-3.679
X6.01Y-3.042
X6.01Y-3.651
X6.0945Y-2.9232
X6.1004Y-3.7717
X6.1515Y-3.063
X6.1515Y-3.123
X6.1515Y-3.179
X6.1515Y-3.239
X6.1515Y-3.295
X6.1515Y-3.355
X6.1541Y-3.4909
X6.1966Y-3.5334
X6.2244Y-3.7717
X6.2283Y-2.9232
X6.2475Y-3.3976
X6.2827Y-3.2399
X6.2835Y-3.063
X6.2835Y-3.123
X6.2835Y-3.179
X6.2859Y-3.2926
X6.2859Y-3.3574
X6.2899Y-3.44
X6.439Y-3.1791
X6.439Y-3.2382
X6.439Y-3.2972
X6.439Y-3.356
X6.439Y-3.4744
T2
X5.6236Y-2.9331
X5.6236Y-3.7598
X5.7236Y-2.9331
X5.7236Y-3.7598
X5.8236Y-2.9331
X5.8236Y-3.7598
X5.9236Y-2.9331
X5.9236Y-3.7598
X6.0236Y-2.9331
X6.0236Y-3.7598
X6.0787Y-3.2465
X6.0787Y-3.3465
X6.0787Y-3.4465
T4
X5.6236Y-2.9961
X5.6236Y-3.6969
X5.7236Y-2.9961
X5.7236Y-3.6969
X5.8236Y-2.9961
X5.8236Y-3.6969
X5.9236Y-2.9961
X5.9236Y-3.6969
X6.0157Y-3.2465
X6.0157Y-3.3465
X6.0157Y-3.4465
X6.0236Y-2.9961
X6.0236Y-3.6969
X6.2953Y-3.7323
X6.3953Y-3.7323
T3
G00X6.37Y-3.0512
M15
G01X6.4408Y-3.0512
M16
G05
G00X6.37Y-3.622
M15
G01X6.4408Y-3.622
M16
G05
G00X6.6243Y-3.0512
M15
G01X6.6558Y-3.0512
M16
G05
G00X6.6243Y-3.622
M15
G01X6.6558Y-3.622
M16
G05
T0
M30
