%TF.GenerationSoftware,KiCad,Pcbnew,(6.0.7)*%
%TF.CreationDate,2022-09-16T05:20:12-07:00*%
%TF.ProjectId,dvi-sock,6476692d-736f-4636-9b2e-6b696361645f,rev?*%
%TF.SameCoordinates,Original*%
%TF.FileFunction,Copper,L2,Bot*%
%TF.FilePolarity,Positive*%
%FSLAX46Y46*%
G04 Gerber Fmt 4.6, Leading zero omitted, Abs format (unit mm)*
G04 Created by KiCad (PCBNEW (6.0.7)) date 2022-09-16 05:20:12*
%MOMM*%
%LPD*%
G01*
G04 APERTURE LIST*
G04 Aperture macros list*
%AMRoundRect*
0 Rectangle with rounded corners*
0 $1 Rounding radius*
0 $2 $3 $4 $5 $6 $7 $8 $9 X,Y pos of 4 corners*
0 Add a 4 corners polygon primitive as box body*
4,1,4,$2,$3,$4,$5,$6,$7,$8,$9,$2,$3,0*
0 Add four circle primitives for the rounded corners*
1,1,$1+$1,$2,$3*
1,1,$1+$1,$4,$5*
1,1,$1+$1,$6,$7*
1,1,$1+$1,$8,$9*
0 Add four rect primitives between the rounded corners*
20,1,$1+$1,$2,$3,$4,$5,0*
20,1,$1+$1,$4,$5,$6,$7,0*
20,1,$1+$1,$6,$7,$8,$9,0*
20,1,$1+$1,$8,$9,$2,$3,0*%
G04 Aperture macros list end*
%TA.AperFunction,ComponentPad*%
%ADD10O,1.700000X1.700000*%
%TD*%
%TA.AperFunction,ComponentPad*%
%ADD11R,1.700000X1.700000*%
%TD*%
%TA.AperFunction,ComponentPad*%
%ADD12RoundRect,0.381000X-0.381000X-1.019000X0.381000X-1.019000X0.381000X1.019000X-0.381000X1.019000X0*%
%TD*%
%TA.AperFunction,ComponentPad*%
%ADD13C,0.600000*%
%TD*%
%TA.AperFunction,ComponentPad*%
%ADD14RoundRect,0.381000X0.381000X1.019000X-0.381000X1.019000X-0.381000X-1.019000X0.381000X-1.019000X0*%
%TD*%
%TA.AperFunction,ComponentPad*%
%ADD15RoundRect,0.381000X1.019000X-0.381000X1.019000X0.381000X-1.019000X0.381000X-1.019000X-0.381000X0*%
%TD*%
%TA.AperFunction,ComponentPad*%
%ADD16O,2.300000X1.500000*%
%TD*%
%TA.AperFunction,ComponentPad*%
%ADD17O,3.300000X1.500000*%
%TD*%
%TA.AperFunction,ViaPad*%
%ADD18C,0.600000*%
%TD*%
G04 APERTURE END LIST*
D10*
%TO.P,J5,2,Pin_2*%
%TO.N,GND*%
X162440000Y-94800000D03*
D11*
%TO.P,J5,1,Pin_1*%
%TO.N,+5V*%
X159900000Y-94800000D03*
%TD*%
D12*
%TO.P,J1,5,Pin_5*%
%TO.N,/PICO_CK-*%
X153000000Y-94600000D03*
D13*
X153000000Y-95500000D03*
%TO.P,J1,4,Pin_4*%
%TO.N,/PICO_CK+*%
X150460000Y-95500000D03*
D12*
X150460000Y-94600000D03*
%TO.P,J1,3,Pin_3*%
%TO.N,GND*%
X147920000Y-94600000D03*
D13*
X147920000Y-95500000D03*
%TO.P,J1,2,Pin_2*%
%TO.N,/PICO_D0-*%
X145380000Y-95500000D03*
D12*
X145380000Y-94600000D03*
%TO.P,J1,1,Pin_1*%
%TO.N,/PICO_D0+*%
X142840000Y-94600000D03*
D13*
X142840000Y-95500000D03*
%TD*%
%TO.P,J2,5,Pin_5*%
%TO.N,/PICO_D1-*%
X142840000Y-74500000D03*
D14*
X142840000Y-75400000D03*
%TO.P,J2,4,Pin_4*%
%TO.N,/PICO_D1+*%
X145380000Y-75400000D03*
D13*
X145380000Y-74500000D03*
D14*
%TO.P,J2,3,Pin_3*%
%TO.N,GND*%
X147920000Y-75400000D03*
D13*
X147920000Y-74500000D03*
%TO.P,J2,2,Pin_2*%
%TO.N,/PICO_D2-*%
X150460000Y-74500000D03*
D14*
X150460000Y-75400000D03*
%TO.P,J2,1,Pin_1*%
%TO.N,/PICO_D2+*%
X153000000Y-75400000D03*
D13*
X153000000Y-74500000D03*
%TD*%
D15*
%TO.P,J3,3,Pin_3*%
%TO.N,unconnected-(J3-Pad3)*%
X153500000Y-82460000D03*
D13*
X154400000Y-82460000D03*
D15*
%TO.P,J3,2,Pin_2*%
%TO.N,GND*%
X153500000Y-85000000D03*
D13*
X154400000Y-85000000D03*
D15*
%TO.P,J3,1,Pin_1*%
%TO.N,unconnected-(J3-Pad1)*%
X153500000Y-87540000D03*
D13*
X154400000Y-87540000D03*
%TD*%
D16*
%TO.P,J4,SH,SH*%
%TO.N,GND*%
X168657000Y-92000000D03*
X168657000Y-77500000D03*
D17*
X162697000Y-92000000D03*
X162697000Y-77500000D03*
%TD*%
D18*
%TO.N,GND*%
X150799800Y-92735400D03*
X159601402Y-77800200D03*
X145034000Y-92735400D03*
X144856200Y-77419200D03*
X156248602Y-83693000D03*
X150799800Y-77266800D03*
X159579800Y-82294559D03*
X163550600Y-88250000D03*
X143179800Y-92735400D03*
X156248602Y-82270600D03*
X159763354Y-87376967D03*
X152654000Y-77266800D03*
X158685723Y-86299336D03*
X154800000Y-74250000D03*
X144109999Y-76555600D03*
X156248602Y-77800200D03*
X144109999Y-93446600D03*
X159601402Y-80746600D03*
X159661908Y-83632493D03*
X142300000Y-85000000D03*
X159661908Y-85277507D03*
X154950000Y-95800000D03*
X156314936Y-88670123D03*
X163550600Y-82250000D03*
X157392567Y-89747754D03*
X156248602Y-79324200D03*
X158200000Y-74250000D03*
X159601402Y-79324200D03*
X163550600Y-83750000D03*
X151729999Y-76555600D03*
X163550600Y-85242400D03*
X156248602Y-80746600D03*
X158100000Y-95800000D03*
X151729999Y-93446600D03*
X152654000Y-92735400D03*
X143357600Y-77419200D03*
X156248602Y-85217000D03*
X163550600Y-80750000D03*
%TD*%
%TA.AperFunction,Conductor*%
%TO.N,GND*%
G36*
X144594902Y-73917813D02*
G01*
X144620212Y-73961650D01*
X144611422Y-74011500D01*
X144606279Y-74019240D01*
X144584591Y-74047814D01*
X144531596Y-74117632D01*
X144477989Y-74253028D01*
X144467500Y-74339706D01*
X144467500Y-76460294D01*
X144477989Y-76546972D01*
X144485469Y-76565864D01*
X144524703Y-76664957D01*
X144531596Y-76682368D01*
X144619639Y-76798361D01*
X144735632Y-76886404D01*
X144740322Y-76888261D01*
X144740324Y-76888262D01*
X144794007Y-76909516D01*
X144871028Y-76940011D01*
X144933219Y-76947537D01*
X144955490Y-76950232D01*
X144955493Y-76950232D01*
X144957706Y-76950500D01*
X145802294Y-76950500D01*
X145804507Y-76950232D01*
X145804510Y-76950232D01*
X145826781Y-76947537D01*
X145888972Y-76940011D01*
X145965993Y-76909516D01*
X146019676Y-76888262D01*
X146019678Y-76888261D01*
X146024368Y-76886404D01*
X146140361Y-76798361D01*
X146228404Y-76682368D01*
X146235298Y-76664957D01*
X146274531Y-76565864D01*
X146282011Y-76546972D01*
X146292500Y-76460294D01*
X146292500Y-76454647D01*
X146958001Y-76454647D01*
X146958318Y-76459485D01*
X146972322Y-76565864D01*
X146974811Y-76575151D01*
X147029641Y-76707523D01*
X147034453Y-76715858D01*
X147121671Y-76829523D01*
X147128477Y-76836329D01*
X147242146Y-76923550D01*
X147250473Y-76928357D01*
X147382851Y-76983190D01*
X147392134Y-76985678D01*
X147498516Y-76999683D01*
X147503351Y-77000000D01*
X147806952Y-77000000D01*
X147816948Y-76996362D01*
X147820000Y-76991075D01*
X147820000Y-76986951D01*
X148020000Y-76986951D01*
X148023638Y-76996947D01*
X148028925Y-76999999D01*
X148336647Y-76999999D01*
X148341485Y-76999682D01*
X148447864Y-76985678D01*
X148457151Y-76983189D01*
X148589523Y-76928359D01*
X148597858Y-76923547D01*
X148711523Y-76836329D01*
X148718329Y-76829523D01*
X148805550Y-76715854D01*
X148810357Y-76707527D01*
X148865190Y-76575149D01*
X148867678Y-76565866D01*
X148881683Y-76459484D01*
X148882000Y-76454649D01*
X148882000Y-75513048D01*
X148878362Y-75503052D01*
X148873075Y-75500000D01*
X148033048Y-75500000D01*
X148023052Y-75503638D01*
X148020000Y-75508925D01*
X148020000Y-76986951D01*
X147820000Y-76986951D01*
X147820000Y-75513048D01*
X147816362Y-75503052D01*
X147811075Y-75500000D01*
X146971049Y-75500000D01*
X146961053Y-75503638D01*
X146958001Y-75508925D01*
X146958001Y-76454647D01*
X146292500Y-76454647D01*
X146292500Y-74339706D01*
X146282011Y-74253028D01*
X146228404Y-74117632D01*
X146175409Y-74047814D01*
X146153721Y-74019240D01*
X146138752Y-73970885D01*
X146158368Y-73924221D01*
X146203390Y-73901083D01*
X146212664Y-73900500D01*
X147025310Y-73900500D01*
X147072876Y-73917813D01*
X147098186Y-73961650D01*
X147089396Y-74011500D01*
X147084018Y-74019548D01*
X147034450Y-74084146D01*
X147029643Y-74092473D01*
X146974810Y-74224851D01*
X146972322Y-74234134D01*
X146958317Y-74340516D01*
X146958000Y-74345351D01*
X146958000Y-75286952D01*
X146961638Y-75296948D01*
X146966925Y-75300000D01*
X148868951Y-75300000D01*
X148878947Y-75296362D01*
X148881999Y-75291075D01*
X148881999Y-74345353D01*
X148881682Y-74340515D01*
X148867678Y-74234136D01*
X148865189Y-74224849D01*
X148810359Y-74092477D01*
X148805550Y-74084147D01*
X148755982Y-74019549D01*
X148740760Y-73971272D01*
X148760131Y-73924506D01*
X148805031Y-73901133D01*
X148814690Y-73900500D01*
X149627336Y-73900500D01*
X149674902Y-73917813D01*
X149700212Y-73961650D01*
X149691422Y-74011500D01*
X149686279Y-74019240D01*
X149664591Y-74047814D01*
X149611596Y-74117632D01*
X149557989Y-74253028D01*
X149547500Y-74339706D01*
X149547500Y-76460294D01*
X149557989Y-76546972D01*
X149565469Y-76565864D01*
X149604703Y-76664957D01*
X149611596Y-76682368D01*
X149699639Y-76798361D01*
X149815632Y-76886404D01*
X149820322Y-76888261D01*
X149820324Y-76888262D01*
X149874007Y-76909516D01*
X149951028Y-76940011D01*
X150013219Y-76947537D01*
X150035490Y-76950232D01*
X150035493Y-76950232D01*
X150037706Y-76950500D01*
X150882294Y-76950500D01*
X150884507Y-76950232D01*
X150884510Y-76950232D01*
X150906781Y-76947537D01*
X150968972Y-76940011D01*
X151045993Y-76909516D01*
X151099676Y-76888262D01*
X151099678Y-76888261D01*
X151104368Y-76886404D01*
X151220361Y-76798361D01*
X151308404Y-76682368D01*
X151315298Y-76664957D01*
X151354531Y-76565864D01*
X151362011Y-76546972D01*
X151372500Y-76460294D01*
X151372500Y-74339706D01*
X151362011Y-74253028D01*
X151308404Y-74117632D01*
X151255409Y-74047814D01*
X151233721Y-74019240D01*
X151218752Y-73970885D01*
X151238368Y-73924221D01*
X151283390Y-73901083D01*
X151292664Y-73900500D01*
X152167336Y-73900500D01*
X152214902Y-73917813D01*
X152240212Y-73961650D01*
X152231422Y-74011500D01*
X152226279Y-74019240D01*
X152204591Y-74047814D01*
X152151596Y-74117632D01*
X152097989Y-74253028D01*
X152087500Y-74339706D01*
X152087500Y-76460294D01*
X152097989Y-76546972D01*
X152105469Y-76565864D01*
X152144703Y-76664957D01*
X152151596Y-76682368D01*
X152239639Y-76798361D01*
X152355632Y-76886404D01*
X152360322Y-76888261D01*
X152360324Y-76888262D01*
X152414007Y-76909516D01*
X152491028Y-76940011D01*
X152553219Y-76947537D01*
X152575490Y-76950232D01*
X152575493Y-76950232D01*
X152577706Y-76950500D01*
X153422294Y-76950500D01*
X153424507Y-76950232D01*
X153424510Y-76950232D01*
X153446781Y-76947537D01*
X153508972Y-76940011D01*
X153585993Y-76909516D01*
X153639676Y-76888262D01*
X153639678Y-76888261D01*
X153644368Y-76886404D01*
X153760361Y-76798361D01*
X153848404Y-76682368D01*
X153855298Y-76664957D01*
X153894531Y-76565864D01*
X153902011Y-76546972D01*
X153912500Y-76460294D01*
X153912500Y-74339706D01*
X153902011Y-74253028D01*
X153848404Y-74117632D01*
X153795409Y-74047814D01*
X153773721Y-74019240D01*
X153758752Y-73970885D01*
X153778368Y-73924221D01*
X153823390Y-73901083D01*
X153832664Y-73900500D01*
X169574243Y-73900500D01*
X169593394Y-73903021D01*
X169594229Y-73903244D01*
X169594388Y-73903287D01*
X169603800Y-73905809D01*
X169613211Y-73903287D01*
X169620118Y-73903287D01*
X169629776Y-73903920D01*
X169655556Y-73907314D01*
X169684601Y-73911138D01*
X169703259Y-73916138D01*
X169769549Y-73943596D01*
X169786276Y-73953252D01*
X169843211Y-73996940D01*
X169856860Y-74010589D01*
X169900548Y-74067524D01*
X169910204Y-74084251D01*
X169937662Y-74150541D01*
X169942662Y-74169199D01*
X169949880Y-74224020D01*
X169950513Y-74233682D01*
X169950513Y-74240589D01*
X169947991Y-74250000D01*
X169950512Y-74259409D01*
X169950779Y-74260404D01*
X169953300Y-74279557D01*
X169953300Y-76882976D01*
X169935987Y-76930542D01*
X169892150Y-76955852D01*
X169842300Y-76947062D01*
X169817929Y-76923445D01*
X169817820Y-76923529D01*
X169817244Y-76922782D01*
X169816409Y-76921972D01*
X169815533Y-76920560D01*
X169810983Y-76914651D01*
X169683526Y-76779869D01*
X169677879Y-76774995D01*
X169525935Y-76668604D01*
X169519411Y-76664957D01*
X169349168Y-76591285D01*
X169342068Y-76589033D01*
X169159595Y-76550913D01*
X169153980Y-76550184D01*
X169151440Y-76550050D01*
X169149509Y-76550000D01*
X168770048Y-76550000D01*
X168760052Y-76553638D01*
X168757000Y-76558925D01*
X168757000Y-78436952D01*
X168760638Y-78446948D01*
X168765925Y-78450000D01*
X169103357Y-78450000D01*
X169107093Y-78449811D01*
X169245278Y-78435774D01*
X169252586Y-78434274D01*
X169429599Y-78378802D01*
X169436453Y-78375864D01*
X169598698Y-78285931D01*
X169604820Y-78281676D01*
X169745662Y-78160959D01*
X169750809Y-78155554D01*
X169820828Y-78065286D01*
X169863662Y-78038312D01*
X169913812Y-78045182D01*
X169947814Y-78082681D01*
X169953300Y-78110641D01*
X169953300Y-91382976D01*
X169935987Y-91430542D01*
X169892150Y-91455852D01*
X169842300Y-91447062D01*
X169817929Y-91423445D01*
X169817820Y-91423529D01*
X169817244Y-91422782D01*
X169816409Y-91421972D01*
X169815533Y-91420560D01*
X169810983Y-91414651D01*
X169683526Y-91279869D01*
X169677879Y-91274995D01*
X169525935Y-91168604D01*
X169519411Y-91164957D01*
X169349168Y-91091285D01*
X169342068Y-91089033D01*
X169159595Y-91050913D01*
X169153980Y-91050184D01*
X169151440Y-91050050D01*
X169149509Y-91050000D01*
X168770048Y-91050000D01*
X168760052Y-91053638D01*
X168757000Y-91058925D01*
X168757000Y-92936952D01*
X168760638Y-92946948D01*
X168765925Y-92950000D01*
X169103357Y-92950000D01*
X169107093Y-92949811D01*
X169245278Y-92935774D01*
X169252586Y-92934274D01*
X169429599Y-92878802D01*
X169436453Y-92875864D01*
X169598698Y-92785931D01*
X169604820Y-92781676D01*
X169745662Y-92660959D01*
X169750809Y-92655554D01*
X169820828Y-92565286D01*
X169863662Y-92538312D01*
X169913812Y-92545182D01*
X169947814Y-92582681D01*
X169953300Y-92610641D01*
X169953300Y-95720443D01*
X169950779Y-95739594D01*
X169947991Y-95750000D01*
X169950513Y-95759411D01*
X169950513Y-95766318D01*
X169949880Y-95775976D01*
X169948334Y-95787719D01*
X169942662Y-95830801D01*
X169937662Y-95849459D01*
X169910204Y-95915749D01*
X169900548Y-95932476D01*
X169856860Y-95989411D01*
X169843211Y-96003060D01*
X169786276Y-96046748D01*
X169769549Y-96056404D01*
X169703259Y-96083862D01*
X169684601Y-96088862D01*
X169655556Y-96092686D01*
X169629776Y-96096080D01*
X169620118Y-96096713D01*
X169613211Y-96096713D01*
X169603800Y-96094191D01*
X169594391Y-96096712D01*
X169594229Y-96096756D01*
X169593394Y-96096979D01*
X169574243Y-96099500D01*
X153832664Y-96099500D01*
X153785098Y-96082187D01*
X153759788Y-96038350D01*
X153768578Y-95988500D01*
X153773721Y-95980760D01*
X153822987Y-95915854D01*
X153848404Y-95882368D01*
X153902011Y-95746972D01*
X153911952Y-95664820D01*
X158899500Y-95664820D01*
X158900210Y-95668389D01*
X158900210Y-95668390D01*
X158905000Y-95692468D01*
X158908233Y-95708722D01*
X158941496Y-95758504D01*
X158991278Y-95791767D01*
X158998424Y-95793188D01*
X158998425Y-95793189D01*
X159031610Y-95799790D01*
X159031611Y-95799790D01*
X159035180Y-95800500D01*
X160764820Y-95800500D01*
X160768389Y-95799790D01*
X160768390Y-95799790D01*
X160801575Y-95793189D01*
X160801576Y-95793188D01*
X160808722Y-95791767D01*
X160858504Y-95758504D01*
X160891767Y-95708722D01*
X160895001Y-95692468D01*
X160899790Y-95668390D01*
X160899790Y-95668389D01*
X160900500Y-95664820D01*
X160900500Y-94907792D01*
X161395310Y-94907792D01*
X161401949Y-94986855D01*
X161403250Y-94993942D01*
X161458013Y-95184922D01*
X161460663Y-95191617D01*
X161551479Y-95368326D01*
X161555384Y-95374384D01*
X161678789Y-95530083D01*
X161683794Y-95535267D01*
X161835094Y-95664032D01*
X161841013Y-95668146D01*
X162014440Y-95765072D01*
X162021041Y-95767955D01*
X162209991Y-95829348D01*
X162217036Y-95830897D01*
X162327043Y-95844015D01*
X162337400Y-95841586D01*
X162340000Y-95838111D01*
X162340000Y-95832407D01*
X162540000Y-95832407D01*
X162543638Y-95842403D01*
X162547875Y-95844849D01*
X162619602Y-95839330D01*
X162626701Y-95838078D01*
X162818062Y-95784649D01*
X162824770Y-95782047D01*
X163002107Y-95692468D01*
X163008195Y-95688604D01*
X163164751Y-95566289D01*
X163169970Y-95561319D01*
X163299791Y-95410920D01*
X163303939Y-95405040D01*
X163402078Y-95232283D01*
X163405006Y-95225708D01*
X163467719Y-95037189D01*
X163469316Y-95030155D01*
X163484124Y-94912946D01*
X163481767Y-94902573D01*
X163478377Y-94900000D01*
X162553048Y-94900000D01*
X162543052Y-94903638D01*
X162540000Y-94908925D01*
X162540000Y-95832407D01*
X162340000Y-95832407D01*
X162340000Y-94913048D01*
X162336362Y-94903052D01*
X162331075Y-94900000D01*
X161407704Y-94900000D01*
X161397708Y-94903638D01*
X161395310Y-94907792D01*
X160900500Y-94907792D01*
X160900500Y-94687033D01*
X161396040Y-94687033D01*
X161398542Y-94697372D01*
X161402107Y-94700000D01*
X162326952Y-94700000D01*
X162336948Y-94696362D01*
X162340000Y-94691075D01*
X162340000Y-94686952D01*
X162540000Y-94686952D01*
X162543638Y-94696948D01*
X162548925Y-94700000D01*
X163472228Y-94700000D01*
X163482224Y-94696362D01*
X163484528Y-94692371D01*
X163475340Y-94598670D01*
X163473941Y-94591602D01*
X163416516Y-94401403D01*
X163413772Y-94394745D01*
X163320498Y-94219322D01*
X163316512Y-94213323D01*
X163190942Y-94059358D01*
X163185866Y-94054247D01*
X163032789Y-93927610D01*
X163026804Y-93923573D01*
X162852043Y-93829081D01*
X162845405Y-93826290D01*
X162655612Y-93767540D01*
X162648552Y-93766091D01*
X162552977Y-93756045D01*
X162542657Y-93758618D01*
X162540000Y-93762275D01*
X162540000Y-94686952D01*
X162340000Y-94686952D01*
X162340000Y-93767764D01*
X162336362Y-93757768D01*
X162332290Y-93755418D01*
X162245912Y-93763278D01*
X162238818Y-93764631D01*
X162048231Y-93820724D01*
X162041555Y-93823422D01*
X161865483Y-93915469D01*
X161859456Y-93919413D01*
X161704619Y-94043906D01*
X161699471Y-94048947D01*
X161571765Y-94201140D01*
X161567696Y-94207083D01*
X161471980Y-94381191D01*
X161469144Y-94387808D01*
X161409068Y-94577189D01*
X161407572Y-94584228D01*
X161396040Y-94687033D01*
X160900500Y-94687033D01*
X160900500Y-93935180D01*
X160891767Y-93891278D01*
X160858504Y-93841496D01*
X160808722Y-93808233D01*
X160801576Y-93806812D01*
X160801575Y-93806811D01*
X160768390Y-93800210D01*
X160768389Y-93800210D01*
X160764820Y-93799500D01*
X159035180Y-93799500D01*
X159031611Y-93800210D01*
X159031610Y-93800210D01*
X158998425Y-93806811D01*
X158998424Y-93806812D01*
X158991278Y-93808233D01*
X158941496Y-93841496D01*
X158908233Y-93891278D01*
X158899500Y-93935180D01*
X158899500Y-95664820D01*
X153911952Y-95664820D01*
X153912500Y-95660294D01*
X153912500Y-93539706D01*
X153902011Y-93453028D01*
X153848404Y-93317632D01*
X153760361Y-93201639D01*
X153644368Y-93113596D01*
X153639678Y-93111739D01*
X153639676Y-93111738D01*
X153550555Y-93076453D01*
X153508972Y-93059989D01*
X153446781Y-93052463D01*
X153424510Y-93049768D01*
X153424507Y-93049768D01*
X153422294Y-93049500D01*
X152577706Y-93049500D01*
X152575493Y-93049768D01*
X152575490Y-93049768D01*
X152553219Y-93052463D01*
X152491028Y-93059989D01*
X152449445Y-93076453D01*
X152360324Y-93111738D01*
X152360322Y-93111739D01*
X152355632Y-93113596D01*
X152239639Y-93201639D01*
X152151596Y-93317632D01*
X152097989Y-93453028D01*
X152087500Y-93539706D01*
X152087500Y-95660294D01*
X152097989Y-95746972D01*
X152151596Y-95882368D01*
X152177013Y-95915854D01*
X152226279Y-95980760D01*
X152241248Y-96029115D01*
X152221632Y-96075779D01*
X152176610Y-96098917D01*
X152167336Y-96099500D01*
X151292664Y-96099500D01*
X151245098Y-96082187D01*
X151219788Y-96038350D01*
X151228578Y-95988500D01*
X151233721Y-95980760D01*
X151282987Y-95915854D01*
X151308404Y-95882368D01*
X151362011Y-95746972D01*
X151372500Y-95660294D01*
X151372500Y-93539706D01*
X151362011Y-93453028D01*
X151308404Y-93317632D01*
X151220361Y-93201639D01*
X151104368Y-93113596D01*
X151099678Y-93111739D01*
X151099676Y-93111738D01*
X151010555Y-93076453D01*
X150968972Y-93059989D01*
X150906781Y-93052463D01*
X150884510Y-93049768D01*
X150884507Y-93049768D01*
X150882294Y-93049500D01*
X150037706Y-93049500D01*
X150035493Y-93049768D01*
X150035490Y-93049768D01*
X150013219Y-93052463D01*
X149951028Y-93059989D01*
X149909445Y-93076453D01*
X149820324Y-93111738D01*
X149820322Y-93111739D01*
X149815632Y-93113596D01*
X149699639Y-93201639D01*
X149611596Y-93317632D01*
X149557989Y-93453028D01*
X149547500Y-93539706D01*
X149547500Y-95660294D01*
X149557989Y-95746972D01*
X149611596Y-95882368D01*
X149637013Y-95915854D01*
X149686279Y-95980760D01*
X149701248Y-96029115D01*
X149681632Y-96075779D01*
X149636610Y-96098917D01*
X149627336Y-96099500D01*
X148814690Y-96099500D01*
X148767124Y-96082187D01*
X148741814Y-96038350D01*
X148750604Y-95988500D01*
X148755982Y-95980452D01*
X148805550Y-95915854D01*
X148810357Y-95907527D01*
X148865190Y-95775149D01*
X148867678Y-95765866D01*
X148881683Y-95659484D01*
X148882000Y-95654649D01*
X148882000Y-94713048D01*
X148878362Y-94703052D01*
X148873075Y-94700000D01*
X146971049Y-94700000D01*
X146961053Y-94703638D01*
X146958001Y-94708925D01*
X146958001Y-95654647D01*
X146958318Y-95659485D01*
X146972322Y-95765864D01*
X146974811Y-95775151D01*
X147029641Y-95907523D01*
X147034450Y-95915853D01*
X147084018Y-95980451D01*
X147099240Y-96028728D01*
X147079869Y-96075494D01*
X147034969Y-96098867D01*
X147025310Y-96099500D01*
X146212664Y-96099500D01*
X146165098Y-96082187D01*
X146139788Y-96038350D01*
X146148578Y-95988500D01*
X146153721Y-95980760D01*
X146202987Y-95915854D01*
X146228404Y-95882368D01*
X146282011Y-95746972D01*
X146292500Y-95660294D01*
X146292500Y-94486952D01*
X146958000Y-94486952D01*
X146961638Y-94496948D01*
X146966925Y-94500000D01*
X147806952Y-94500000D01*
X147816948Y-94496362D01*
X147820000Y-94491075D01*
X147820000Y-94486952D01*
X148020000Y-94486952D01*
X148023638Y-94496948D01*
X148028925Y-94500000D01*
X148868951Y-94500000D01*
X148878947Y-94496362D01*
X148881999Y-94491075D01*
X148881999Y-93545353D01*
X148881682Y-93540515D01*
X148867678Y-93434136D01*
X148865189Y-93424849D01*
X148810359Y-93292477D01*
X148805547Y-93284142D01*
X148718329Y-93170477D01*
X148711523Y-93163671D01*
X148597854Y-93076450D01*
X148589527Y-93071643D01*
X148457149Y-93016810D01*
X148447866Y-93014322D01*
X148341484Y-93000317D01*
X148336649Y-93000000D01*
X148033048Y-93000000D01*
X148023052Y-93003638D01*
X148020000Y-93008925D01*
X148020000Y-94486952D01*
X147820000Y-94486952D01*
X147820000Y-93013049D01*
X147816362Y-93003053D01*
X147811075Y-93000001D01*
X147503353Y-93000001D01*
X147498515Y-93000318D01*
X147392136Y-93014322D01*
X147382849Y-93016811D01*
X147250477Y-93071641D01*
X147242142Y-93076453D01*
X147128477Y-93163671D01*
X147121671Y-93170477D01*
X147034450Y-93284146D01*
X147029643Y-93292473D01*
X146974810Y-93424851D01*
X146972322Y-93434134D01*
X146958317Y-93540516D01*
X146958000Y-93545351D01*
X146958000Y-94486952D01*
X146292500Y-94486952D01*
X146292500Y-93539706D01*
X146282011Y-93453028D01*
X146228404Y-93317632D01*
X146140361Y-93201639D01*
X146024368Y-93113596D01*
X146019678Y-93111739D01*
X146019676Y-93111738D01*
X145930555Y-93076453D01*
X145888972Y-93059989D01*
X145826781Y-93052463D01*
X145804510Y-93049768D01*
X145804507Y-93049768D01*
X145802294Y-93049500D01*
X144957706Y-93049500D01*
X144955493Y-93049768D01*
X144955490Y-93049768D01*
X144933219Y-93052463D01*
X144871028Y-93059989D01*
X144829445Y-93076453D01*
X144740324Y-93111738D01*
X144740322Y-93111739D01*
X144735632Y-93113596D01*
X144619639Y-93201639D01*
X144531596Y-93317632D01*
X144477989Y-93453028D01*
X144467500Y-93539706D01*
X144467500Y-95660294D01*
X144477989Y-95746972D01*
X144531596Y-95882368D01*
X144557013Y-95915854D01*
X144606279Y-95980760D01*
X144621248Y-96029115D01*
X144601632Y-96075779D01*
X144556610Y-96098917D01*
X144547336Y-96099500D01*
X143672664Y-96099500D01*
X143625098Y-96082187D01*
X143599788Y-96038350D01*
X143608578Y-95988500D01*
X143613721Y-95980760D01*
X143662987Y-95915854D01*
X143688404Y-95882368D01*
X143742011Y-95746972D01*
X143752500Y-95660294D01*
X143752500Y-93539706D01*
X143742011Y-93453028D01*
X143688404Y-93317632D01*
X143600361Y-93201639D01*
X143484368Y-93113596D01*
X143479678Y-93111739D01*
X143479676Y-93111738D01*
X143390555Y-93076453D01*
X143348972Y-93059989D01*
X143286781Y-93052463D01*
X143264510Y-93049768D01*
X143264507Y-93049768D01*
X143262294Y-93049500D01*
X142417706Y-93049500D01*
X142415493Y-93049768D01*
X142415490Y-93049768D01*
X142393219Y-93052463D01*
X142331028Y-93059989D01*
X142289445Y-93076453D01*
X142200324Y-93111738D01*
X142200322Y-93111739D01*
X142195632Y-93113596D01*
X142079639Y-93201639D01*
X142076587Y-93205660D01*
X142033443Y-93262500D01*
X141990895Y-93289921D01*
X141940675Y-93283577D01*
X141906282Y-93246436D01*
X141900500Y-93217760D01*
X141900500Y-92107072D01*
X160852380Y-92107072D01*
X160871540Y-92233767D01*
X160873395Y-92240991D01*
X160937449Y-92415085D01*
X160940717Y-92421785D01*
X161038469Y-92579444D01*
X161043017Y-92585349D01*
X161170474Y-92720131D01*
X161176121Y-92725005D01*
X161328065Y-92831396D01*
X161334589Y-92835043D01*
X161504832Y-92908715D01*
X161511932Y-92910967D01*
X161694405Y-92949087D01*
X161700020Y-92949816D01*
X161702560Y-92949950D01*
X161704491Y-92950000D01*
X162583952Y-92950000D01*
X162593948Y-92946362D01*
X162597000Y-92941075D01*
X162597000Y-92936952D01*
X162797000Y-92936952D01*
X162800638Y-92946948D01*
X162805925Y-92950000D01*
X163643357Y-92950000D01*
X163647093Y-92949811D01*
X163785278Y-92935774D01*
X163792586Y-92934274D01*
X163969599Y-92878802D01*
X163976453Y-92875864D01*
X164138698Y-92785931D01*
X164144820Y-92781676D01*
X164285662Y-92660959D01*
X164290809Y-92655554D01*
X164404505Y-92508977D01*
X164408453Y-92502659D01*
X164490357Y-92336211D01*
X164492953Y-92329229D01*
X164539714Y-92149709D01*
X164540854Y-92142346D01*
X164542390Y-92113028D01*
X164540569Y-92107072D01*
X167312380Y-92107072D01*
X167331540Y-92233767D01*
X167333395Y-92240991D01*
X167397449Y-92415085D01*
X167400717Y-92421785D01*
X167498469Y-92579444D01*
X167503017Y-92585349D01*
X167630474Y-92720131D01*
X167636121Y-92725005D01*
X167788065Y-92831396D01*
X167794589Y-92835043D01*
X167964832Y-92908715D01*
X167971932Y-92910967D01*
X168154405Y-92949087D01*
X168160020Y-92949816D01*
X168162560Y-92949950D01*
X168164491Y-92950000D01*
X168543952Y-92950000D01*
X168553948Y-92946362D01*
X168557000Y-92941075D01*
X168557000Y-92113048D01*
X168553362Y-92103052D01*
X168548075Y-92100000D01*
X167324358Y-92100000D01*
X167314362Y-92103638D01*
X167312380Y-92107072D01*
X164540569Y-92107072D01*
X164539281Y-92102858D01*
X164534880Y-92100000D01*
X162810048Y-92100000D01*
X162800052Y-92103638D01*
X162797000Y-92108925D01*
X162797000Y-92936952D01*
X162597000Y-92936952D01*
X162597000Y-92113048D01*
X162593362Y-92103052D01*
X162588075Y-92100000D01*
X160864358Y-92100000D01*
X160854362Y-92103638D01*
X160852380Y-92107072D01*
X141900500Y-92107072D01*
X141900500Y-91886972D01*
X160851610Y-91886972D01*
X160854719Y-91897142D01*
X160859120Y-91900000D01*
X162583952Y-91900000D01*
X162593948Y-91896362D01*
X162597000Y-91891075D01*
X162597000Y-91886952D01*
X162797000Y-91886952D01*
X162800638Y-91896948D01*
X162805925Y-91900000D01*
X164529642Y-91900000D01*
X164539638Y-91896362D01*
X164541620Y-91892928D01*
X164540719Y-91886972D01*
X167311610Y-91886972D01*
X167314719Y-91897142D01*
X167319120Y-91900000D01*
X168543952Y-91900000D01*
X168553948Y-91896362D01*
X168557000Y-91891075D01*
X168557000Y-91063048D01*
X168553362Y-91053052D01*
X168548075Y-91050000D01*
X168210643Y-91050000D01*
X168206907Y-91050189D01*
X168068722Y-91064226D01*
X168061414Y-91065726D01*
X167884401Y-91121198D01*
X167877547Y-91124136D01*
X167715302Y-91214069D01*
X167709180Y-91218324D01*
X167568338Y-91339041D01*
X167563191Y-91344446D01*
X167449495Y-91491023D01*
X167445547Y-91497341D01*
X167363643Y-91663789D01*
X167361047Y-91670771D01*
X167314286Y-91850291D01*
X167313146Y-91857654D01*
X167311610Y-91886972D01*
X164540719Y-91886972D01*
X164522460Y-91766233D01*
X164520605Y-91759009D01*
X164456551Y-91584915D01*
X164453283Y-91578215D01*
X164355531Y-91420556D01*
X164350983Y-91414651D01*
X164223526Y-91279869D01*
X164217879Y-91274995D01*
X164065935Y-91168604D01*
X164059411Y-91164957D01*
X163889168Y-91091285D01*
X163882068Y-91089033D01*
X163699595Y-91050913D01*
X163693980Y-91050184D01*
X163691440Y-91050050D01*
X163689509Y-91050000D01*
X162810048Y-91050000D01*
X162800052Y-91053638D01*
X162797000Y-91058925D01*
X162797000Y-91886952D01*
X162597000Y-91886952D01*
X162597000Y-91063048D01*
X162593362Y-91053052D01*
X162588075Y-91050000D01*
X161750643Y-91050000D01*
X161746907Y-91050189D01*
X161608722Y-91064226D01*
X161601414Y-91065726D01*
X161424401Y-91121198D01*
X161417547Y-91124136D01*
X161255302Y-91214069D01*
X161249180Y-91218324D01*
X161108338Y-91339041D01*
X161103191Y-91344446D01*
X160989495Y-91491023D01*
X160985547Y-91497341D01*
X160903643Y-91663789D01*
X160901047Y-91670771D01*
X160854286Y-91850291D01*
X160853146Y-91857654D01*
X160851610Y-91886972D01*
X141900500Y-91886972D01*
X141900500Y-87962294D01*
X151949500Y-87962294D01*
X151959989Y-88048972D01*
X152013596Y-88184368D01*
X152101639Y-88300361D01*
X152217632Y-88388404D01*
X152222322Y-88390261D01*
X152222324Y-88390262D01*
X152276007Y-88411516D01*
X152353028Y-88442011D01*
X152415219Y-88449537D01*
X152437490Y-88452232D01*
X152437493Y-88452232D01*
X152439706Y-88452500D01*
X154560294Y-88452500D01*
X154562507Y-88452232D01*
X154562510Y-88452232D01*
X154584781Y-88449537D01*
X154646972Y-88442011D01*
X154723993Y-88411516D01*
X154777676Y-88390262D01*
X154777678Y-88390261D01*
X154782368Y-88388404D01*
X154898361Y-88300361D01*
X154986404Y-88184368D01*
X155040011Y-88048972D01*
X155050500Y-87962294D01*
X155050500Y-87117706D01*
X155040011Y-87031028D01*
X154986404Y-86895632D01*
X154898361Y-86779639D01*
X154782368Y-86691596D01*
X154777678Y-86689739D01*
X154777676Y-86689738D01*
X154723993Y-86668484D01*
X154646972Y-86637989D01*
X154584781Y-86630463D01*
X154562510Y-86627768D01*
X154562507Y-86627768D01*
X154560294Y-86627500D01*
X152439706Y-86627500D01*
X152437493Y-86627768D01*
X152437490Y-86627768D01*
X152415219Y-86630463D01*
X152353028Y-86637989D01*
X152276007Y-86668484D01*
X152222324Y-86689738D01*
X152222322Y-86689739D01*
X152217632Y-86691596D01*
X152101639Y-86779639D01*
X152013596Y-86895632D01*
X151959989Y-87031028D01*
X151949500Y-87117706D01*
X151949500Y-87962294D01*
X141900500Y-87962294D01*
X141900500Y-85416647D01*
X151900001Y-85416647D01*
X151900318Y-85421485D01*
X151914322Y-85527864D01*
X151916811Y-85537151D01*
X151971641Y-85669523D01*
X151976453Y-85677858D01*
X152063671Y-85791523D01*
X152070477Y-85798329D01*
X152184146Y-85885550D01*
X152192473Y-85890357D01*
X152324851Y-85945190D01*
X152334134Y-85947678D01*
X152440516Y-85961683D01*
X152445351Y-85962000D01*
X153386952Y-85962000D01*
X153396948Y-85958362D01*
X153400000Y-85953075D01*
X153400000Y-85948951D01*
X153600000Y-85948951D01*
X153603638Y-85958947D01*
X153608925Y-85961999D01*
X154554647Y-85961999D01*
X154559485Y-85961682D01*
X154665864Y-85947678D01*
X154675151Y-85945189D01*
X154807523Y-85890359D01*
X154815858Y-85885547D01*
X154929523Y-85798329D01*
X154936329Y-85791523D01*
X155023550Y-85677854D01*
X155028357Y-85669527D01*
X155083190Y-85537149D01*
X155085678Y-85527866D01*
X155099683Y-85421484D01*
X155100000Y-85416649D01*
X155100000Y-85113048D01*
X155096362Y-85103052D01*
X155091075Y-85100000D01*
X153613048Y-85100000D01*
X153603052Y-85103638D01*
X153600000Y-85108925D01*
X153600000Y-85948951D01*
X153400000Y-85948951D01*
X153400000Y-85113048D01*
X153396362Y-85103052D01*
X153391075Y-85100000D01*
X151913049Y-85100000D01*
X151903053Y-85103638D01*
X151900001Y-85108925D01*
X151900001Y-85416647D01*
X141900500Y-85416647D01*
X141900500Y-84886952D01*
X151900000Y-84886952D01*
X151903638Y-84896948D01*
X151908925Y-84900000D01*
X153386952Y-84900000D01*
X153396948Y-84896362D01*
X153400000Y-84891075D01*
X153400000Y-84886952D01*
X153600000Y-84886952D01*
X153603638Y-84896948D01*
X153608925Y-84900000D01*
X155086951Y-84900000D01*
X155096947Y-84896362D01*
X155099999Y-84891075D01*
X155099999Y-84583353D01*
X155099682Y-84578515D01*
X155085678Y-84472136D01*
X155083189Y-84462849D01*
X155028359Y-84330477D01*
X155023547Y-84322142D01*
X154936329Y-84208477D01*
X154929523Y-84201671D01*
X154815854Y-84114450D01*
X154807527Y-84109643D01*
X154675149Y-84054810D01*
X154665866Y-84052322D01*
X154559484Y-84038317D01*
X154554649Y-84038000D01*
X153613048Y-84038000D01*
X153603052Y-84041638D01*
X153600000Y-84046925D01*
X153600000Y-84886952D01*
X153400000Y-84886952D01*
X153400000Y-84051049D01*
X153396362Y-84041053D01*
X153391075Y-84038001D01*
X152445353Y-84038001D01*
X152440515Y-84038318D01*
X152334136Y-84052322D01*
X152324849Y-84054811D01*
X152192477Y-84109641D01*
X152184142Y-84114453D01*
X152070477Y-84201671D01*
X152063671Y-84208477D01*
X151976450Y-84322146D01*
X151971643Y-84330473D01*
X151916810Y-84462851D01*
X151914322Y-84472134D01*
X151900317Y-84578516D01*
X151900000Y-84583351D01*
X151900000Y-84886952D01*
X141900500Y-84886952D01*
X141900500Y-82882294D01*
X151949500Y-82882294D01*
X151959989Y-82968972D01*
X152013596Y-83104368D01*
X152101639Y-83220361D01*
X152217632Y-83308404D01*
X152222322Y-83310261D01*
X152222324Y-83310262D01*
X152276007Y-83331516D01*
X152353028Y-83362011D01*
X152415219Y-83369537D01*
X152437490Y-83372232D01*
X152437493Y-83372232D01*
X152439706Y-83372500D01*
X154560294Y-83372500D01*
X154562507Y-83372232D01*
X154562510Y-83372232D01*
X154584781Y-83369537D01*
X154646972Y-83362011D01*
X154723993Y-83331516D01*
X154777676Y-83310262D01*
X154777678Y-83310261D01*
X154782368Y-83308404D01*
X154898361Y-83220361D01*
X154986404Y-83104368D01*
X155040011Y-82968972D01*
X155050500Y-82882294D01*
X155050500Y-82037706D01*
X155040011Y-81951028D01*
X154986404Y-81815632D01*
X154898361Y-81699639D01*
X154782368Y-81611596D01*
X154777678Y-81609739D01*
X154777676Y-81609738D01*
X154723993Y-81588484D01*
X154646972Y-81557989D01*
X154584781Y-81550463D01*
X154562510Y-81547768D01*
X154562507Y-81547768D01*
X154560294Y-81547500D01*
X152439706Y-81547500D01*
X152437493Y-81547768D01*
X152437490Y-81547768D01*
X152415219Y-81550463D01*
X152353028Y-81557989D01*
X152276007Y-81588484D01*
X152222324Y-81609738D01*
X152222322Y-81609739D01*
X152217632Y-81611596D01*
X152101639Y-81699639D01*
X152013596Y-81815632D01*
X151959989Y-81951028D01*
X151949500Y-82037706D01*
X151949500Y-82882294D01*
X141900500Y-82882294D01*
X141900500Y-77607072D01*
X160852380Y-77607072D01*
X160871540Y-77733767D01*
X160873395Y-77740991D01*
X160937449Y-77915085D01*
X160940717Y-77921785D01*
X161038469Y-78079444D01*
X161043017Y-78085349D01*
X161170474Y-78220131D01*
X161176121Y-78225005D01*
X161328065Y-78331396D01*
X161334589Y-78335043D01*
X161504832Y-78408715D01*
X161511932Y-78410967D01*
X161694405Y-78449087D01*
X161700020Y-78449816D01*
X161702560Y-78449950D01*
X161704491Y-78450000D01*
X162583952Y-78450000D01*
X162593948Y-78446362D01*
X162597000Y-78441075D01*
X162597000Y-78436952D01*
X162797000Y-78436952D01*
X162800638Y-78446948D01*
X162805925Y-78450000D01*
X163643357Y-78450000D01*
X163647093Y-78449811D01*
X163785278Y-78435774D01*
X163792586Y-78434274D01*
X163969599Y-78378802D01*
X163976453Y-78375864D01*
X164138698Y-78285931D01*
X164144820Y-78281676D01*
X164285662Y-78160959D01*
X164290809Y-78155554D01*
X164404505Y-78008977D01*
X164408453Y-78002659D01*
X164490357Y-77836211D01*
X164492953Y-77829229D01*
X164539714Y-77649709D01*
X164540854Y-77642346D01*
X164542390Y-77613028D01*
X164540569Y-77607072D01*
X167312380Y-77607072D01*
X167331540Y-77733767D01*
X167333395Y-77740991D01*
X167397449Y-77915085D01*
X167400717Y-77921785D01*
X167498469Y-78079444D01*
X167503017Y-78085349D01*
X167630474Y-78220131D01*
X167636121Y-78225005D01*
X167788065Y-78331396D01*
X167794589Y-78335043D01*
X167964832Y-78408715D01*
X167971932Y-78410967D01*
X168154405Y-78449087D01*
X168160020Y-78449816D01*
X168162560Y-78449950D01*
X168164491Y-78450000D01*
X168543952Y-78450000D01*
X168553948Y-78446362D01*
X168557000Y-78441075D01*
X168557000Y-77613048D01*
X168553362Y-77603052D01*
X168548075Y-77600000D01*
X167324358Y-77600000D01*
X167314362Y-77603638D01*
X167312380Y-77607072D01*
X164540569Y-77607072D01*
X164539281Y-77602858D01*
X164534880Y-77600000D01*
X162810048Y-77600000D01*
X162800052Y-77603638D01*
X162797000Y-77608925D01*
X162797000Y-78436952D01*
X162597000Y-78436952D01*
X162597000Y-77613048D01*
X162593362Y-77603052D01*
X162588075Y-77600000D01*
X160864358Y-77600000D01*
X160854362Y-77603638D01*
X160852380Y-77607072D01*
X141900500Y-77607072D01*
X141900500Y-77386972D01*
X160851610Y-77386972D01*
X160854719Y-77397142D01*
X160859120Y-77400000D01*
X162583952Y-77400000D01*
X162593948Y-77396362D01*
X162597000Y-77391075D01*
X162597000Y-77386952D01*
X162797000Y-77386952D01*
X162800638Y-77396948D01*
X162805925Y-77400000D01*
X164529642Y-77400000D01*
X164539638Y-77396362D01*
X164541620Y-77392928D01*
X164540719Y-77386972D01*
X167311610Y-77386972D01*
X167314719Y-77397142D01*
X167319120Y-77400000D01*
X168543952Y-77400000D01*
X168553948Y-77396362D01*
X168557000Y-77391075D01*
X168557000Y-76563048D01*
X168553362Y-76553052D01*
X168548075Y-76550000D01*
X168210643Y-76550000D01*
X168206907Y-76550189D01*
X168068722Y-76564226D01*
X168061414Y-76565726D01*
X167884401Y-76621198D01*
X167877547Y-76624136D01*
X167715302Y-76714069D01*
X167709180Y-76718324D01*
X167568338Y-76839041D01*
X167563191Y-76844446D01*
X167449495Y-76991023D01*
X167445547Y-76997341D01*
X167363643Y-77163789D01*
X167361047Y-77170771D01*
X167314286Y-77350291D01*
X167313146Y-77357654D01*
X167311610Y-77386972D01*
X164540719Y-77386972D01*
X164522460Y-77266233D01*
X164520605Y-77259009D01*
X164456551Y-77084915D01*
X164453283Y-77078215D01*
X164355531Y-76920556D01*
X164350983Y-76914651D01*
X164223526Y-76779869D01*
X164217879Y-76774995D01*
X164065935Y-76668604D01*
X164059411Y-76664957D01*
X163889168Y-76591285D01*
X163882068Y-76589033D01*
X163699595Y-76550913D01*
X163693980Y-76550184D01*
X163691440Y-76550050D01*
X163689509Y-76550000D01*
X162810048Y-76550000D01*
X162800052Y-76553638D01*
X162797000Y-76558925D01*
X162797000Y-77386952D01*
X162597000Y-77386952D01*
X162597000Y-76563048D01*
X162593362Y-76553052D01*
X162588075Y-76550000D01*
X161750643Y-76550000D01*
X161746907Y-76550189D01*
X161608722Y-76564226D01*
X161601414Y-76565726D01*
X161424401Y-76621198D01*
X161417547Y-76624136D01*
X161255302Y-76714069D01*
X161249180Y-76718324D01*
X161108338Y-76839041D01*
X161103191Y-76844446D01*
X160989495Y-76991023D01*
X160985547Y-76997341D01*
X160903643Y-77163789D01*
X160901047Y-77170771D01*
X160854286Y-77350291D01*
X160853146Y-77357654D01*
X160851610Y-77386972D01*
X141900500Y-77386972D01*
X141900500Y-76782240D01*
X141917813Y-76734674D01*
X141961650Y-76709364D01*
X142011500Y-76718154D01*
X142033443Y-76737500D01*
X142079639Y-76798361D01*
X142195632Y-76886404D01*
X142200322Y-76888261D01*
X142200324Y-76888262D01*
X142254007Y-76909516D01*
X142331028Y-76940011D01*
X142393219Y-76947537D01*
X142415490Y-76950232D01*
X142415493Y-76950232D01*
X142417706Y-76950500D01*
X143262294Y-76950500D01*
X143264507Y-76950232D01*
X143264510Y-76950232D01*
X143286781Y-76947537D01*
X143348972Y-76940011D01*
X143425993Y-76909516D01*
X143479676Y-76888262D01*
X143479678Y-76888261D01*
X143484368Y-76886404D01*
X143600361Y-76798361D01*
X143688404Y-76682368D01*
X143695298Y-76664957D01*
X143734531Y-76565864D01*
X143742011Y-76546972D01*
X143752500Y-76460294D01*
X143752500Y-74339706D01*
X143742011Y-74253028D01*
X143688404Y-74117632D01*
X143635409Y-74047814D01*
X143613721Y-74019240D01*
X143598752Y-73970885D01*
X143618368Y-73924221D01*
X143663390Y-73901083D01*
X143672664Y-73900500D01*
X144547336Y-73900500D01*
X144594902Y-73917813D01*
G37*
%TD.AperFunction*%
%TD*%
M02*
